#N canvas 872 16 1021 718 10;
#X declare -lib mrpeach;
#X obj 29 37 import mrpeach;
#X obj 29 130 unpackOSC;
#X obj 56 101 bng 15 250 50 0 empty empty empty 17 7 0 10 -262144 -1
-1;
#X obj 29 160 routeOSC /lpc;
#X obj 29 190 routeOSC /sound;
#X text 27 6 === RECEIVER ===;
#X obj 330 37 receive defaultplay;
#X obj 104 302 bng 15 250 50 0 empty empty empty 17 7 0 10 -262144
-1 -1;
#X obj 29 65 udpreceive 1112;
#X obj 29 337 send defaultplay;
#X floatatom 296 112 5 0 0 0 - - -;
#X obj 295 182 route 0 1 2 3 4 5 6 7 8 9 10 11 12 13 14 15;
#X obj 498 80 unpack f f;
#X floatatom 472 113 5 0 0 0 - - -;
#X floatatom 506 113 5 0 0 0 - - -;
#X obj 310 239 s v1;
#X obj 326 220 s v2;
#X obj 295 258 s v0;
#X obj 343 258 s v3;
#X obj 358 239 s v4;
#X obj 374 220 s v5;
#X obj 390 260 s v6;
#X obj 406 241 s v7;
#X obj 422 222 s v8;
#X obj 439 261 s v9;
#X obj 454 242 s v10;
#X obj 470 223 s v11;
#X obj 487 261 s v12;
#X obj 502 242 s v13;
#X obj 518 223 s v14;
#X obj 534 261 s v15;
#X text 337 9 === DEFAULT SOUND PLAYER ===;
#X text 46 443 === VOICE SLOTS ===;
#X obj 318 142 prepend;
#X obj 40 494 phasenote;
#X obj 40 473 r v0;
#X obj 41 515 *~ 0.25;
#X obj 41 536 dac~;
#X msg 275 402 0.25;
#X obj 100 515 r volume;
#X obj 177 494 phasenote;
#X obj 178 515 *~ 0.25;
#X obj 178 536 dac~;
#X obj 237 515 r volume;
#X obj 311 487 phasenote;
#X obj 312 508 *~ 0.25;
#X obj 312 529 dac~;
#X obj 371 508 r volume;
#X obj 455 492 phasenote;
#X obj 456 513 *~ 0.25;
#X obj 456 534 dac~;
#X obj 515 513 r volume;
#X obj 41 591 phasenote;
#X obj 42 612 *~ 0.25;
#X obj 42 633 dac~;
#X obj 101 612 r volume;
#X obj 183 592 phasenote;
#X obj 184 613 *~ 0.25;
#X obj 184 634 dac~;
#X obj 243 613 r volume;
#X obj 314 592 phasenote;
#X obj 315 613 *~ 0.25;
#X obj 315 634 dac~;
#X obj 374 613 r volume;
#X obj 459 594 phasenote;
#X obj 460 615 *~ 0.25;
#X obj 460 636 dac~;
#X obj 519 615 r volume;
#X obj 177 473 r v1;
#X obj 311 466 r v2;
#X obj 455 471 r v3;
#X obj 41 570 r v4;
#X obj 183 571 r v5;
#X obj 314 571 r v6;
#X obj 459 573 r v7;
#X obj 296 79 count 16;
#X obj 42 687 phasenote;
#X obj 43 708 *~ 0.25;
#X obj 43 729 dac~;
#X obj 102 708 r volume;
#X obj 184 688 phasenote;
#X obj 185 709 *~ 0.25;
#X obj 185 730 dac~;
#X obj 244 709 r volume;
#X obj 315 690 phasenote;
#X obj 316 711 *~ 0.25;
#X obj 316 732 dac~;
#X obj 375 711 r volume;
#X obj 460 691 phasenote;
#X obj 461 712 *~ 0.25;
#X obj 461 733 dac~;
#X obj 520 712 r volume;
#X obj 43 783 phasenote;
#X obj 44 804 *~ 0.25;
#X obj 44 825 dac~;
#X obj 103 804 r volume;
#X obj 185 785 phasenote;
#X obj 186 806 *~ 0.25;
#X obj 186 827 dac~;
#X obj 245 806 r volume;
#X obj 317 786 phasenote;
#X obj 318 807 *~ 0.25;
#X obj 318 828 dac~;
#X obj 377 807 r volume;
#X obj 462 785 phasenote;
#X obj 463 806 *~ 0.25;
#X obj 463 827 dac~;
#X obj 522 806 r volume;
#X obj 42 666 r v8;
#X obj 184 667 r v9;
#X obj 315 669 r v10;
#X obj 460 670 r v11;
#X obj 43 761 r v12;
#X obj 185 764 r v13;
#X obj 317 765 r v14;
#X obj 462 764 r v15;
#X obj 221 302 bng 15 250 50 0 empty empty empty 17 7 0 10 -262144
-1 -1;
#X obj 146 337 send fluteplay;
#X floatatom 638 108 5 0 0 0 - - -;
#X obj 698 75 unpack f f;
#X floatatom 672 108 5 0 0 0 - - -;
#X floatatom 706 108 5 0 0 0 - - -;
#X obj 660 138 prepend;
#X text 667 7 === FLUTE PLAYER ===;
#X obj 637 178 route 0 1 2;
#X obj 638 75 count 3;
#X obj 637 254 s vf0;
#X obj 658 235 s vf1;
#X obj 679 216 s vf2;
#X obj 632 334 *~ 0.25;
#X obj 632 355 dac~;
#X obj 631 292 r vf0;
#X obj 631 313 oscnote;
#X obj 778 334 *~ 0.25;
#X obj 778 355 dac~;
#X obj 777 313 oscnote;
#X obj 777 227 *~ 0.25;
#X obj 777 248 dac~;
#X obj 776 206 oscnote;
#X obj 777 292 r vf1;
#X obj 776 185 r vf2;
#X obj 672 33 receive fluteplay;
#X obj 774 466 r stoprouting;
#X obj 149 188 s stoprouting;
#X obj 774 500 routeOSC /stop;
#X obj 723 550 routeOSC /default;
#X obj 798 591 bng 15 250 50 0 empty empty empty 17 7 0 10 -262144
-1 -1;
#X obj 915 591 bng 15 250 50 0 empty empty empty 17 7 0 10 -262144
-1 -1;
#X obj 840 550 routeOSC /flute;
#X obj 723 626 s defaultstop;
#X obj 840 626 s flutestop;
#X msg 420 406 0;
#X obj 420 384 r defaultstop;
#X obj 275 423 s volume;
#X obj 833 227 r flutevolume;
#X text 244 383 default voice volume;
#X obj 903 72 r flutestop;
#X msg 909 93 0;
#X obj 825 118 s flutevolume;
#X obj 834 334 r flutevolume;
#X obj 688 334 r flutevolume;
#X obj 825 57 r fluteplay;
#X obj 275 359 r defaultplay;
#X obj 29 261 routeOSC /voice1;
#X obj 146 261 routeOSC /voice2;
#X obj 85 380 routeOSC /instrument;
#X obj 122 410 bng 15 250 50 0 empty empty empty 17 7 0 10 -262144
-1 -1;
#X msg 825 89 0.25;
#X connect 1 0 3 0;
#X connect 3 0 4 0;
#X connect 3 0 143 0;
#X connect 4 0 163 0;
#X connect 4 0 164 0;
#X connect 6 0 12 0;
#X connect 6 0 33 0;
#X connect 6 0 75 0;
#X connect 8 0 1 0;
#X connect 8 0 2 0;
#X connect 10 0 33 1;
#X connect 11 0 17 0;
#X connect 11 1 15 0;
#X connect 11 2 16 0;
#X connect 11 3 18 0;
#X connect 11 4 19 0;
#X connect 11 5 20 0;
#X connect 11 6 21 0;
#X connect 11 7 22 0;
#X connect 11 8 23 0;
#X connect 11 9 24 0;
#X connect 11 10 25 0;
#X connect 11 11 26 0;
#X connect 11 12 27 0;
#X connect 11 13 28 0;
#X connect 11 14 29 0;
#X connect 11 15 30 0;
#X connect 12 0 13 0;
#X connect 12 1 14 0;
#X connect 33 0 11 0;
#X connect 34 0 36 0;
#X connect 35 0 34 0;
#X connect 36 0 37 0;
#X connect 36 0 37 1;
#X connect 38 0 153 0;
#X connect 39 0 36 1;
#X connect 40 0 41 0;
#X connect 41 0 42 0;
#X connect 41 0 42 1;
#X connect 43 0 41 1;
#X connect 44 0 45 0;
#X connect 45 0 46 0;
#X connect 45 0 46 1;
#X connect 47 0 45 1;
#X connect 48 0 49 0;
#X connect 49 0 50 0;
#X connect 49 0 50 1;
#X connect 51 0 49 1;
#X connect 52 0 53 0;
#X connect 53 0 54 0;
#X connect 53 0 54 1;
#X connect 55 0 53 1;
#X connect 56 0 57 0;
#X connect 57 0 58 0;
#X connect 57 0 58 1;
#X connect 59 0 57 1;
#X connect 60 0 61 0;
#X connect 61 0 62 0;
#X connect 61 0 62 1;
#X connect 63 0 61 1;
#X connect 64 0 65 0;
#X connect 65 0 66 0;
#X connect 65 0 66 1;
#X connect 67 0 65 1;
#X connect 68 0 40 0;
#X connect 69 0 44 0;
#X connect 70 0 48 0;
#X connect 71 0 52 0;
#X connect 72 0 56 0;
#X connect 73 0 60 0;
#X connect 74 0 64 0;
#X connect 75 0 10 0;
#X connect 76 0 77 0;
#X connect 77 0 78 0;
#X connect 77 0 78 1;
#X connect 79 0 77 1;
#X connect 80 0 81 0;
#X connect 81 0 82 0;
#X connect 81 0 82 1;
#X connect 83 0 81 1;
#X connect 84 0 85 0;
#X connect 85 0 86 0;
#X connect 85 0 86 1;
#X connect 87 0 85 1;
#X connect 88 0 89 0;
#X connect 89 0 90 0;
#X connect 89 0 90 1;
#X connect 91 0 89 1;
#X connect 92 0 93 0;
#X connect 93 0 94 0;
#X connect 93 0 94 1;
#X connect 95 0 93 1;
#X connect 96 0 97 0;
#X connect 97 0 98 0;
#X connect 97 0 98 1;
#X connect 99 0 97 1;
#X connect 100 0 101 0;
#X connect 101 0 102 0;
#X connect 101 0 102 1;
#X connect 103 0 101 1;
#X connect 104 0 105 0;
#X connect 105 0 106 0;
#X connect 105 0 106 1;
#X connect 107 0 105 1;
#X connect 108 0 76 0;
#X connect 109 0 80 0;
#X connect 110 0 84 0;
#X connect 111 0 88 0;
#X connect 112 0 92 0;
#X connect 113 0 96 0;
#X connect 114 0 100 0;
#X connect 115 0 104 0;
#X connect 118 0 122 1;
#X connect 119 0 120 0;
#X connect 119 1 121 0;
#X connect 122 0 124 0;
#X connect 124 0 126 0;
#X connect 124 1 127 0;
#X connect 124 2 128 0;
#X connect 125 0 118 0;
#X connect 129 0 130 0;
#X connect 129 0 130 1;
#X connect 131 0 132 0;
#X connect 132 0 129 0;
#X connect 133 0 134 0;
#X connect 133 0 134 1;
#X connect 135 0 133 0;
#X connect 136 0 137 0;
#X connect 136 0 137 1;
#X connect 138 0 136 0;
#X connect 139 0 135 0;
#X connect 140 0 138 0;
#X connect 141 0 119 0;
#X connect 141 0 122 0;
#X connect 141 0 125 0;
#X connect 142 0 144 0;
#X connect 144 0 145 0;
#X connect 144 0 148 0;
#X connect 145 0 146 0;
#X connect 145 0 149 0;
#X connect 148 0 147 0;
#X connect 148 0 150 0;
#X connect 151 0 153 0;
#X connect 152 0 151 0;
#X connect 154 0 136 1;
#X connect 156 0 157 0;
#X connect 157 0 158 0;
#X connect 159 0 133 1;
#X connect 160 0 129 1;
#X connect 161 0 167 0;
#X connect 162 0 38 0;
#X connect 163 0 7 0;
#X connect 163 0 9 0;
#X connect 163 0 165 0;
#X connect 164 0 116 0;
#X connect 164 0 117 0;
#X connect 165 0 166 0;
#X connect 167 0 158 0;
