#N canvas 1411 603 450 300 10;
#X obj 95 -38 inlet;
#X obj 136 161 outlet~;
#X obj 95 -9 unpack f f;
#X text 168 -9 pitch \, duration;
#X floatatom 107 24 5 0 0 0 - - -;
#X obj 114 51 mtof;
#X floatatom 114 72 5 0 0 0 - - -;
#X obj 188 51 delay;
#X obj 204 23 * 1000;
#X obj 152 128 *~ 1;
#X msg 188 72 0;
#X msg 141 23 1;
#X msg 170 23 bang;
#X floatatom 188 93 5 0 0 0 - - -;
#X obj 114 92 phasor~;
#X connect 0 0 2 0;
#X connect 2 0 4 0;
#X connect 2 0 11 0;
#X connect 2 1 8 0;
#X connect 2 1 12 0;
#X connect 4 0 5 0;
#X connect 5 0 6 0;
#X connect 6 0 14 0;
#X connect 7 0 10 0;
#X connect 8 0 7 0;
#X connect 9 0 1 0;
#X connect 10 0 13 0;
#X connect 11 0 13 0;
#X connect 12 0 7 0;
#X connect 13 0 9 1;
#X connect 14 0 9 0;
