#N canvas 354 22 1020 754 10;
#N canvas 0 22 450 278 (subpatch) 0;
#X array sample1 91454 float 2;
#X coords 0 1 91454 -1 200 140 1 0 0;
#X restore -295 -1016 graph;
#X obj -177 -1523 bng 15 250 50 0 empty empty empty 17 7 0 10 -262144
-1 -1;
#X obj -177 -1489 openpanel;
#X obj -177 -1423 soundfiler;
#X floatatom -174 -1373 12 0 0 0 - - -;
#X obj -260 -1344 / 44100;
#X floatatom -258 -1317 12 0 0 0 - - -;
#X obj -277 -1284 * 1000;
#X floatatom -313 -1258 12 0 0 0 - - -;
#X msg -195 -1208 0 \, \$1 \$2;
#X obj -190 -1236 pack \$1 \$2;
#X obj -195 -1165 line~;
#X obj -193 -1043 dac~;
#X obj -278 -1218 vsl 15 128 0 1 0 0 empty empty empty 0 -9 0 10 -262144
-1 -1 6350 1;
#X obj -188 -1067 *~;
#X obj -170 -1278 bng 15 250 50 0 empty empty empty 17 7 0 10 -262144
-1 -1;
#X text -157 -1524 load sample;
#N canvas 0 22 450 278 (subpatch) 0;
#X array sample2 170496 float 2;
#X coords 0 1 170496 -1 200 140 1 0 0;
#X restore -9 -1015 graph;
#X obj 109 -1522 bng 15 250 50 0 empty empty empty 17 7 0 10 -262144
-1 -1;
#X obj 109 -1488 openpanel;
#X obj 109 -1422 soundfiler;
#X floatatom 112 -1372 12 0 0 0 - - -;
#X obj 26 -1343 / 44100;
#X floatatom 28 -1316 12 0 0 0 - - -;
#X obj 9 -1283 * 1000;
#X floatatom -27 -1257 12 0 0 0 - - -;
#X msg 91 -1207 0 \, \$1 \$2;
#X obj 96 -1235 pack \$1 \$2;
#X obj 91 -1164 line~;
#X obj 93 -1042 dac~;
#X obj 8 -1217 vsl 15 128 0 1 0 0 empty empty empty 0 -9 0 10 -262144
-1 -1 6350 1;
#X obj 98 -1066 *~;
#X obj 116 -1277 bng 15 250 50 0 empty empty empty 17 7 0 10 -262144
-1 -1;
#X text 129 -1523 load sample;
#N canvas 0 22 450 278 (subpatch) 0;
#X array sample3 19200 float 2;
#X coords 0 1 19200 -1 200 140 1 0 0;
#X restore 243 -1018 graph;
#X obj 361 -1525 bng 15 250 50 0 empty empty empty 17 7 0 10 -262144
-1 -1;
#X obj 361 -1491 openpanel;
#X obj 361 -1425 soundfiler;
#X floatatom 364 -1375 12 0 0 0 - - -;
#X obj 278 -1346 / 44100;
#X floatatom 280 -1319 12 0 0 0 - - -;
#X obj 261 -1286 * 1000;
#X floatatom 225 -1260 12 0 0 0 - - -;
#X msg 343 -1210 0 \, \$1 \$2;
#X obj 348 -1238 pack \$1 \$2;
#X obj 343 -1167 line~;
#X obj 345 -1045 dac~;
#X obj 260 -1220 vsl 15 128 0 1 0 0 empty empty empty 0 -9 0 10 -262144
-1 -1 6350 1;
#X obj 350 -1069 *~;
#X obj 368 -1280 bng 15 250 50 0 empty empty empty 17 7 0 10 -262144
-1 -1;
#X text 381 -1526 load sample;
#N canvas 0 22 450 278 (subpatch) 0;
#X array sample4 8512 float 2;
#X coords 0 1 8512 -1 200 140 1 0 0;
#X restore 493 -1021 graph;
#X obj 611 -1528 bng 15 250 50 0 empty empty empty 17 7 0 10 -262144
-1 -1;
#X obj 611 -1494 openpanel;
#X obj 611 -1428 soundfiler;
#X floatatom 614 -1378 12 0 0 0 - - -;
#X obj 528 -1349 / 44100;
#X floatatom 530 -1322 12 0 0 0 - - -;
#X obj 511 -1289 * 1000;
#X floatatom 475 -1263 12 0 0 0 - - -;
#X msg 593 -1213 0 \, \$1 \$2;
#X obj 598 -1241 pack \$1 \$2;
#X obj 593 -1170 line~;
#X obj 595 -1048 dac~;
#X obj 510 -1223 vsl 15 128 0 1 0 0 empty empty empty 0 -9 0 10 -262144
-1 -1 6350 1;
#X obj 600 -1072 *~;
#X obj 618 -1283 bng 15 250 50 0 empty empty empty 17 7 0 10 -262144
-1 -1;
#X text 631 -1529 load sample;
#X obj -158 -1305 r custom1;
#X obj 135 -1306 r custom2;
#X obj 383 -1306 r custom3;
#X obj 631 -1306 r custom4;
#X obj -366 -1675 loadbang;
#X obj -366 -1623 s defsampvol;
#X msg -366 -1650 0.5;
#X obj -366 -1238 r defsampvol;
#X obj -92 -1237 r defsampvol;
#X obj 179 -1238 r defsampvol;
#X obj 430 -1242 r defsampvol;
#X msg -177 -1459 read -resize \$1 sample1;
#X obj -190 -1134 tabread4~ sample1;
#X msg 109 -1458 read -resize \$1 sample2;
#X obj 96 -1133 tabread4~ sample2;
#X msg 361 -1461 read -resize \$1 sample3;
#X obj 348 -1136 tabread4~ sample3;
#X msg 611 -1464 read -resize \$1 sample4;
#X obj 598 -1139 tabread4~ sample4;
#X text 8 -1624 Customer lets you make music with custom samples! Use
blockytalky's Voice 8 along with note by number to trigger these sounds
after you load them in. Note number 1 will set off sample 1 \, note
2 will set off sample 2 \, and so on.;
#X obj -239 -1676 r midi8;
#X obj -239 -1652 unpack f f;
#X obj -238 -1629 sel 1 2 3 4;
#X obj -238 -1605 s custom1;
#X obj -238 -1585 s custom2;
#X obj -175 -1605 s custom3;
#X obj -175 -1585 s custom4;
#X obj -363 -1267 r vol8;
#X obj -90 -1264 r vol8;
#X obj 180 -1260 r vol8;
#X obj 431 -1264 r vol8;
#X connect 1 0 2 0;
#X connect 2 0 79 0;
#X connect 3 0 4 0;
#X connect 4 0 5 0;
#X connect 4 0 10 0;
#X connect 5 0 6 0;
#X connect 6 0 7 0;
#X connect 7 0 8 0;
#X connect 8 0 10 1;
#X connect 9 0 11 0;
#X connect 10 0 9 0;
#X connect 11 0 80 0;
#X connect 13 0 14 1;
#X connect 14 0 12 0;
#X connect 14 0 12 1;
#X connect 15 0 10 0;
#X connect 18 0 19 0;
#X connect 19 0 81 0;
#X connect 20 0 21 0;
#X connect 21 0 22 0;
#X connect 21 0 27 0;
#X connect 22 0 23 0;
#X connect 23 0 24 0;
#X connect 24 0 25 0;
#X connect 25 0 27 1;
#X connect 26 0 28 0;
#X connect 27 0 26 0;
#X connect 28 0 82 0;
#X connect 30 0 31 1;
#X connect 31 0 29 0;
#X connect 31 0 29 1;
#X connect 32 0 27 0;
#X connect 35 0 36 0;
#X connect 36 0 83 0;
#X connect 37 0 38 0;
#X connect 38 0 39 0;
#X connect 38 0 44 0;
#X connect 39 0 40 0;
#X connect 40 0 41 0;
#X connect 41 0 42 0;
#X connect 42 0 44 1;
#X connect 43 0 45 0;
#X connect 44 0 43 0;
#X connect 45 0 84 0;
#X connect 47 0 48 1;
#X connect 48 0 46 0;
#X connect 48 0 46 1;
#X connect 49 0 44 0;
#X connect 52 0 53 0;
#X connect 53 0 85 0;
#X connect 54 0 55 0;
#X connect 55 0 56 0;
#X connect 55 0 61 0;
#X connect 56 0 57 0;
#X connect 57 0 58 0;
#X connect 58 0 59 0;
#X connect 59 0 61 1;
#X connect 60 0 62 0;
#X connect 61 0 60 0;
#X connect 62 0 86 0;
#X connect 64 0 65 1;
#X connect 65 0 63 0;
#X connect 65 0 63 1;
#X connect 66 0 61 0;
#X connect 68 0 15 0;
#X connect 69 0 32 0;
#X connect 70 0 49 0;
#X connect 71 0 66 0;
#X connect 72 0 74 0;
#X connect 74 0 73 0;
#X connect 75 0 13 0;
#X connect 76 0 30 0;
#X connect 77 0 47 0;
#X connect 78 0 64 0;
#X connect 79 0 3 0;
#X connect 80 0 14 0;
#X connect 81 0 20 0;
#X connect 82 0 31 0;
#X connect 83 0 37 0;
#X connect 84 0 48 0;
#X connect 85 0 54 0;
#X connect 86 0 65 0;
#X connect 88 0 89 0;
#X connect 89 0 90 0;
#X connect 90 0 91 0;
#X connect 90 1 92 0;
#X connect 90 2 93 0;
#X connect 90 3 94 0;
#X connect 95 0 13 0;
#X connect 96 0 30 0;
#X connect 97 0 47 0;
#X connect 98 0 64 0;
