#N canvas 441 22 992 757 10;
#N canvas 0 22 450 278 (subpatch) 0;
#X array clap 19674 float 2;
#X coords 0 1 19674 -1 200 140 1 0 0;
#X restore -295 -1016 graph;
#X obj -177 -1523 bng 15 250 50 0 empty empty empty 17 7 0 10 -262144
-1 -1;
#X obj -177 -1489 openpanel;
#X obj -177 -1423 soundfiler;
#X floatatom -174 -1373 12 0 0 0 - - -;
#X obj -260 -1344 / 44100;
#X floatatom -258 -1317 12 0 0 0 - - -;
#X obj -277 -1284 * 1000;
#X floatatom -313 -1258 12 0 0 0 - - -;
#X msg -195 -1208 0 \, \$1 \$2;
#X obj -190 -1236 pack \$1 \$2;
#X obj -195 -1165 line~;
#X obj -193 -1043 dac~;
#X obj -278 -1218 vsl 15 128 0 1 0 0 empty empty empty 0 -9 0 10 -262144
-1 -1 6350 1;
#X obj -188 -1067 *~;
#X obj -170 -1278 bng 15 250 50 0 empty empty empty 17 7 0 10 -262144
-1 -1;
#X text -157 -1524 load sample;
#X msg -275 -1521 open clap.aif;
#N canvas 0 22 450 278 (subpatch) 0;
#X array crash 170496 float 2;
#X coords 0 1 170496 -1 200 140 1 0 0;
#X restore -9 -1015 graph;
#X obj 109 -1522 bng 15 250 50 0 empty empty empty 17 7 0 10 -262144
-1 -1;
#X obj 109 -1488 openpanel;
#X obj 109 -1422 soundfiler;
#X floatatom 112 -1372 12 0 0 0 - - -;
#X obj 26 -1343 / 44100;
#X floatatom 28 -1316 12 0 0 0 - - -;
#X obj 9 -1283 * 1000;
#X floatatom -27 -1257 12 0 0 0 - - -;
#X msg 91 -1207 0 \, \$1 \$2;
#X obj 96 -1235 pack \$1 \$2;
#X obj 91 -1164 line~;
#X obj 93 -1042 dac~;
#X obj 8 -1217 vsl 15 128 0 1 0 0 empty empty empty 0 -9 0 10 -262144
-1 -1 1270 1;
#X obj 98 -1066 *~;
#X obj 116 -1277 bng 15 250 50 0 empty empty empty 17 7 0 10 -262144
-1 -1;
#X text 129 -1523 load sample;
#X msg 11 -1520 open crash.aif;
#X msg -177 -1459 read -resize \$1 clap;
#X obj -190 -1134 tabread4~ clap;
#X obj 96 -1133 tabread4~ crash;
#X msg 109 -1458 read -resize \$1 crash;
#N canvas 0 22 450 278 (subpatch) 0;
#X array snare 19200 float 2;
#X coords 0 1 19200 -1 200 140 1 0 0;
#X restore 243 -1018 graph;
#X obj 361 -1525 bng 15 250 50 0 empty empty empty 17 7 0 10 -262144
-1 -1;
#X obj 361 -1491 openpanel;
#X obj 361 -1425 soundfiler;
#X floatatom 364 -1375 12 0 0 0 - - -;
#X obj 278 -1346 / 44100;
#X floatatom 280 -1319 12 0 0 0 - - -;
#X obj 261 -1286 * 1000;
#X floatatom 225 -1260 12 0 0 0 - - -;
#X msg 343 -1210 0 \, \$1 \$2;
#X obj 348 -1238 pack \$1 \$2;
#X obj 343 -1167 line~;
#X obj 345 -1045 dac~;
#X obj 260 -1220 vsl 15 128 0 1 0 0 empty empty empty 0 -9 0 10 -262144
-1 -1 6350 1;
#X obj 350 -1069 *~;
#X obj 368 -1280 bng 15 250 50 0 empty empty empty 17 7 0 10 -262144
-1 -1;
#X text 381 -1526 load sample;
#X msg 263 -1523 open snare.aif;
#X msg 361 -1461 read -resize \$1 snare;
#X obj 348 -1136 tabread4~ snare;
#N canvas 0 22 450 278 (subpatch) 0;
#X array kick 8512 float 2;
#X coords 0 1 8512 -1 200 140 1 0 0;
#X restore 493 -1021 graph;
#X obj 611 -1528 bng 15 250 50 0 empty empty empty 17 7 0 10 -262144
-1 -1;
#X obj 611 -1494 openpanel;
#X obj 611 -1428 soundfiler;
#X floatatom 614 -1378 12 0 0 0 - - -;
#X obj 528 -1349 / 44100;
#X floatatom 530 -1322 12 0 0 0 - - -;
#X obj 511 -1289 * 1000;
#X floatatom 475 -1263 12 0 0 0 - - -;
#X msg 593 -1213 0 \, \$1 \$2;
#X obj 598 -1241 pack \$1 \$2;
#X obj 593 -1170 line~;
#X obj 595 -1048 dac~;
#X obj 510 -1223 vsl 15 128 0 1 0 0 empty empty empty 0 -9 0 10 -262144
-1 -1 9525 1;
#X obj 600 -1072 *~;
#X obj 618 -1283 bng 15 250 50 0 empty empty empty 17 7 0 10 -262144
-1 -1;
#X text 631 -1529 load sample;
#X msg 513 -1526 open kick.aif;
#X msg 611 -1464 read -resize \$1 kick;
#X obj 598 -1139 tabread4~ kick;
#N canvas 0 22 450 278 (subpatch) 0;
#X array chh 12000 float 2;
#X coords 0 1 12000 -1 200 140 1 0 0;
#X restore 747 -1021 graph;
#X obj 865 -1528 bng 15 250 50 0 empty empty empty 17 7 0 10 -262144
-1 -1;
#X obj 865 -1494 openpanel;
#X obj 865 -1428 soundfiler;
#X floatatom 868 -1378 12 0 0 0 - - -;
#X obj 782 -1349 / 44100;
#X floatatom 784 -1322 12 0 0 0 - - -;
#X obj 765 -1289 * 1000;
#X floatatom 729 -1263 12 0 0 0 - - -;
#X msg 847 -1213 0 \, \$1 \$2;
#X obj 852 -1241 pack \$1 \$2;
#X obj 847 -1170 line~;
#X obj 849 -1048 dac~;
#X obj 764 -1223 vsl 15 128 0 1 0 0 empty empty empty 0 -9 0 10 -262144
-1 -1 6350 1;
#X obj 854 -1072 *~;
#X obj 872 -1283 bng 15 250 50 0 empty empty empty 17 7 0 10 -262144
-1 -1;
#X text 885 -1529 load sample;
#X msg 767 -1526 open chh.aif;
#X msg 865 -1464 read -resize \$1 chh;
#X obj 852 -1139 tabread4~ chh;
#N canvas 0 22 450 278 (subpatch) 0;
#X array ohh 14244 float 2;
#X coords 0 1 14244 -1 200 140 1 0 0;
#X restore 995 -1019 graph;
#X obj 1113 -1526 bng 15 250 50 0 empty empty empty 17 7 0 10 -262144
-1 -1;
#X obj 1113 -1492 openpanel;
#X obj 1113 -1426 soundfiler;
#X floatatom 1116 -1376 12 0 0 0 - - -;
#X obj 1030 -1347 / 44100;
#X floatatom 1032 -1320 12 0 0 0 - - -;
#X obj 1013 -1287 * 1000;
#X floatatom 977 -1261 12 0 0 0 - - -;
#X msg 1095 -1211 0 \, \$1 \$2;
#X obj 1100 -1239 pack \$1 \$2;
#X obj 1095 -1168 line~;
#X obj 1097 -1046 dac~;
#X obj 1012 -1221 vsl 15 128 0 1 0 0 empty empty empty 0 -9 0 10 -262144
-1 -1 6350 1;
#X obj 1102 -1070 *~;
#X obj 1120 -1281 bng 15 250 50 0 empty empty empty 17 7 0 10 -262144
-1 -1;
#X text 1133 -1527 load sample;
#X obj 1100 -1137 tabread4~ ohh;
#X msg 1113 -1462 read -resize \$1 ohh;
#X msg 1015 -1524 open ohh.aif;
#N canvas 0 22 450 278 (subpatch) 0;
#X array tom 20864 float 2;
#X coords 0 1 20864 -1 200 140 1 0 0;
#X restore 1237 -1020 graph;
#X obj 1355 -1527 bng 15 250 50 0 empty empty empty 17 7 0 10 -262144
-1 -1;
#X obj 1355 -1493 openpanel;
#X obj 1355 -1427 soundfiler;
#X floatatom 1358 -1377 12 0 0 0 - - -;
#X obj 1272 -1348 / 44100;
#X floatatom 1274 -1321 12 0 0 0 - - -;
#X obj 1255 -1288 * 1000;
#X floatatom 1219 -1262 12 0 0 0 - - -;
#X msg 1337 -1212 0 \, \$1 \$2;
#X obj 1342 -1240 pack \$1 \$2;
#X obj 1337 -1169 line~;
#X obj 1339 -1047 dac~;
#X obj 1254 -1222 vsl 15 128 0 1 0 0 empty empty empty 0 -9 0 10 -262144
-1 -1 6350 1;
#X obj 1344 -1071 *~;
#X obj 1362 -1282 bng 15 250 50 0 empty empty empty 17 7 0 10 -262144
-1 -1;
#X text 1375 -1528 load sample;
#X obj 1342 -1138 tabread4~ tom;
#X msg 1355 -1463 read -resize \$1 tom;
#X msg 1257 -1525 open tom.aif;
#X obj -283 -1602 loadbang;
#X obj -276 -1576 s l;
#X obj -275 -1550 r l;
#X obj 11 -1549 r l;
#X obj 263 -1547 r l;
#X obj 513 -1561 r l;
#X obj 766 -1550 r l;
#X obj 1015 -1550 r l;
#X obj 1257 -1551 r l;
#X obj -311 -1148 r l;
#X msg -312 -1123 0.5;
#X obj -314 -1085 s bvol;
#X obj -324 -1239 r bvol;
#X obj -46 -1234 r l;
#X msg -50 -1200 0.1;
#X obj 210 -1236 r bvol;
#X obj 438 -1234 r bvol;
#X obj 696 -1242 r bvol;
#X obj 944 -1237 r bvol;
#X obj 1203 -1242 r bvol;
#X obj -158 -1305 r conga;
#X obj 135 -1306 r ride;
#X obj 383 -1306 r snare;
#X obj 631 -1306 r bassdrum;
#X obj 889 -1312 r hat;
#X obj 1135 -1316 r hit;
#X obj 1377 -1307 r tom;
#X msg 445 -1207 0.75;
#X connect 1 0 2 0;
#X connect 2 0 36 0;
#X connect 3 0 4 0;
#X connect 4 0 5 0;
#X connect 4 0 10 0;
#X connect 5 0 6 0;
#X connect 6 0 7 0;
#X connect 7 0 8 0;
#X connect 8 0 10 1;
#X connect 9 0 11 0;
#X connect 10 0 9 0;
#X connect 11 0 37 0;
#X connect 13 0 14 1;
#X connect 14 0 12 0;
#X connect 14 0 12 1;
#X connect 15 0 10 0;
#X connect 17 0 36 0;
#X connect 19 0 20 0;
#X connect 20 0 39 0;
#X connect 21 0 22 0;
#X connect 22 0 23 0;
#X connect 22 0 28 0;
#X connect 23 0 24 0;
#X connect 24 0 25 0;
#X connect 25 0 26 0;
#X connect 26 0 28 1;
#X connect 27 0 29 0;
#X connect 28 0 27 0;
#X connect 29 0 38 0;
#X connect 31 0 32 1;
#X connect 32 0 30 0;
#X connect 32 0 30 1;
#X connect 33 0 28 0;
#X connect 35 0 39 0;
#X connect 36 0 3 0;
#X connect 37 0 14 0;
#X connect 38 0 32 0;
#X connect 39 0 21 0;
#X connect 41 0 42 0;
#X connect 42 0 58 0;
#X connect 43 0 44 0;
#X connect 44 0 45 0;
#X connect 44 0 50 0;
#X connect 45 0 46 0;
#X connect 46 0 47 0;
#X connect 47 0 48 0;
#X connect 48 0 50 1;
#X connect 49 0 51 0;
#X connect 50 0 49 0;
#X connect 51 0 59 0;
#X connect 53 0 54 1;
#X connect 54 0 52 0;
#X connect 54 0 52 1;
#X connect 55 0 50 0;
#X connect 57 0 58 0;
#X connect 58 0 43 0;
#X connect 59 0 54 0;
#X connect 61 0 62 0;
#X connect 62 0 78 0;
#X connect 63 0 64 0;
#X connect 64 0 65 0;
#X connect 64 0 70 0;
#X connect 65 0 66 0;
#X connect 66 0 67 0;
#X connect 67 0 68 0;
#X connect 68 0 70 1;
#X connect 69 0 71 0;
#X connect 70 0 69 0;
#X connect 71 0 79 0;
#X connect 73 0 74 1;
#X connect 74 0 72 0;
#X connect 74 0 72 1;
#X connect 75 0 70 0;
#X connect 77 0 78 0;
#X connect 78 0 63 0;
#X connect 79 0 74 0;
#X connect 81 0 82 0;
#X connect 82 0 98 0;
#X connect 83 0 84 0;
#X connect 84 0 85 0;
#X connect 84 0 90 0;
#X connect 85 0 86 0;
#X connect 86 0 87 0;
#X connect 87 0 88 0;
#X connect 88 0 90 1;
#X connect 89 0 91 0;
#X connect 90 0 89 0;
#X connect 91 0 99 0;
#X connect 93 0 94 1;
#X connect 94 0 92 0;
#X connect 94 0 92 1;
#X connect 95 0 90 0;
#X connect 97 0 98 0;
#X connect 98 0 83 0;
#X connect 99 0 94 0;
#X connect 101 0 102 0;
#X connect 102 0 118 0;
#X connect 103 0 104 0;
#X connect 104 0 105 0;
#X connect 104 0 110 0;
#X connect 105 0 106 0;
#X connect 106 0 107 0;
#X connect 107 0 108 0;
#X connect 108 0 110 1;
#X connect 109 0 111 0;
#X connect 110 0 109 0;
#X connect 111 0 117 0;
#X connect 113 0 114 1;
#X connect 114 0 112 0;
#X connect 114 0 112 1;
#X connect 115 0 110 0;
#X connect 117 0 114 0;
#X connect 118 0 103 0;
#X connect 119 0 118 0;
#X connect 121 0 122 0;
#X connect 122 0 138 0;
#X connect 123 0 124 0;
#X connect 124 0 125 0;
#X connect 124 0 130 0;
#X connect 125 0 126 0;
#X connect 126 0 127 0;
#X connect 127 0 128 0;
#X connect 128 0 130 1;
#X connect 129 0 131 0;
#X connect 130 0 129 0;
#X connect 131 0 137 0;
#X connect 133 0 134 1;
#X connect 134 0 132 0;
#X connect 134 0 132 1;
#X connect 135 0 130 0;
#X connect 137 0 134 0;
#X connect 138 0 123 0;
#X connect 139 0 138 0;
#X connect 140 0 141 0;
#X connect 142 0 17 0;
#X connect 143 0 35 0;
#X connect 144 0 57 0;
#X connect 145 0 77 0;
#X connect 146 0 97 0;
#X connect 147 0 119 0;
#X connect 148 0 139 0;
#X connect 149 0 150 0;
#X connect 150 0 151 0;
#X connect 152 0 13 0;
#X connect 153 0 154 0;
#X connect 154 0 31 0;
#X connect 155 0 53 0;
#X connect 156 0 167 0;
#X connect 157 0 93 0;
#X connect 158 0 113 0;
#X connect 159 0 133 0;
#X connect 160 0 15 0;
#X connect 161 0 33 0;
#X connect 162 0 55 0;
#X connect 163 0 75 0;
#X connect 164 0 95 0;
#X connect 165 0 115 0;
#X connect 166 0 135 0;
#X connect 167 0 73 0;
