#N canvas 323 22 835 551 10;
#X declare -path presets;
#X declare -lib mrpeach;
#X declare -path data;
#X declare -path data/bl-mmb;
#X declare -lib mrpeach;
#X declare -path presets;
#X declare -lib mrpeach;
#X declare -path data;
#X declare -path data/bl-mmb;
#X declare -path presets;
#X declare -lib mrpeach;
#X declare -path data;
#X declare -path data/bl-mmb;
#X declare -path presets;
#X declare -lib mrpeach;
#X declare -path data;
#X declare -path data/bl-mmb;
#X declare -path presets;
#X declare -lib mrpeach;
#X declare -path data;
#X declare -path data/bl-mmb;
#X declare -path presets;
#X declare -lib mrpeach;
#X declare -path data;
#X declare -path data/bl-mmb;
#X declare -path presets;
#X declare -lib mrpeach;
#X declare -path data;
#X declare -path data/bl-mmb;
#X obj -170 -10 miniwoogOSC;
#X obj 203 83 udpreceive 1112;
#X obj 208 16 import mrpeach;
#X obj 204 106 unpackOSC;
#X obj 204 154 routeOSC /sound;
#X obj 204 131 routeOSC /lpc;
#X obj 130 135 bng 15 250 50 0 empty empty empty 17 7 0 10 -262144
-1 -1;
#X obj 205 177 routeOSC /voice1;
#X floatatom 384 259 5 0 0 0 - - -;
#X obj 367 286 f;
#X obj 373 316 *;
#X floatatom 333 340 5 0 0 0 - - -;
#X obj 375 222 routeOSC /volume;
#X obj 61 202 routeOSC /instrument;
#X obj 374 412 s vol1;
#X obj -170 9 miniwoogOSC2;
#X obj 634 203 routeOSC /voice2;
#X obj 92 303 s inst1;
#X floatatom 41 268 5 0 0 0 - - -;
#X obj 181 277 s midi1;
#X obj 189 241 routeOSC /play;
#X obj 276 214 routeOSC /stop;
#X obj 284 280 s stop1;
#X obj 395 287 <= 100;
#X obj 377 371 / 100;
#X floatatom 318 400 5 0 0 0 - - -;
#X floatatom 827 338 5 0 0 0 - - -;
#X obj 810 365 f;
#X obj 816 395 *;
#X floatatom 776 419 5 0 0 0 - - -;
#X text 847 320 0-1;
#X obj 818 301 routeOSC /volume;
#X obj 494 283 routeOSC /instrument;
#X floatatom 474 349 5 0 0 0 - - -;
#X obj 632 320 routeOSC /play;
#X obj 719 293 routeOSC /stop;
#X obj 838 366 <= 100;
#X obj 820 450 / 100;
#X floatatom 761 479 5 0 0 0 - - -;
#X obj 525 384 s inst2;
#X obj 624 356 s midi2;
#X obj 727 359 s stop2;
#X obj 817 491 s vol2;
#X obj -170 30 miniwoogOSC3;
#X obj -170 49 miniwoogOSC4;
#X floatatom 1270 334 5 0 0 0 - - -;
#X obj 1253 361 f;
#X obj 1259 391 *;
#X floatatom 1219 415 5 0 0 0 - - -;
#X text 1290 316 0-1;
#X obj 1261 297 routeOSC /volume;
#X obj 947 277 routeOSC /instrument;
#X floatatom 927 343 5 0 0 0 - - -;
#X obj 1075 316 routeOSC /play;
#X obj 1162 289 routeOSC /stop;
#X obj 1281 362 <= 100;
#X obj 1263 446 / 100;
#X floatatom 1204 475 5 0 0 0 - - -;
#X obj 1077 199 routeOSC /voice3;
#X obj 978 378 s inst3;
#X obj 1067 352 s midi3;
#X obj 1170 355 s stop3;
#X obj 1260 487 s vol3;
#X floatatom 1730 336 5 0 0 0 - - -;
#X obj 1713 363 f;
#X obj 1719 393 *;
#X floatatom 1679 417 5 0 0 0 - - -;
#X text 1750 318 0-1;
#X obj 1721 299 routeOSC /volume;
#X obj 1407 279 routeOSC /instrument;
#X floatatom 1387 345 5 0 0 0 - - -;
#X obj 1535 318 routeOSC /play;
#X obj 1622 291 routeOSC /stop;
#X obj 1741 364 <= 100;
#X obj 1723 448 / 100;
#X floatatom 1664 477 5 0 0 0 - - -;
#X obj 1539 202 routeOSC /voice4;
#X obj 1438 380 s inst4;
#X obj 1527 354 s midi4;
#X obj 1630 357 s stop4;
#X obj 1720 489 s vol4;
#X obj 124 351 routeOSC /bandpassfilter;
#X obj 120 383 / 100;
#X obj 119 431 s filter1;
#X obj 595 414 routeOSC /bandpassfilter;
#X obj 591 446 / 100;
#X obj 590 494 s filter2;
#X obj 1048 420 routeOSC /bandpassfilter;
#X obj 1044 452 / 100;
#X obj 1043 500 s filter3;
#X obj 1501 424 routeOSC /bandpassfilter;
#X obj 1497 456 / 100;
#X obj 1496 504 s filter4;
#X msg 298 252 0;
#X msg 733 332 0;
#X msg 1637 325 0;
#X msg 1183 322 0;
#X obj -223 214 routeOSC /drums;
#X obj -265 288 routeOSC /play;
#X obj -151 290 routeOSC /volume;
#X obj -469 369 s bassdrum;
#X obj -403 369 s snare;
#X obj -355 368 s conga;
#X obj -302 368 s tom;
#X obj -258 369 s hat;
#X obj -218 370 s hit;
#X obj -173 371 s ride;
#X floatatom -109 343 5 0 0 0 - - -;
#X obj -109 371 / 100;
#X floatatom -42 328 5 0 0 0 - - -;
#X obj -91 414 s;
#X msg -50 377 symbol dv\$1;
#X obj -452 286 routeOSC /bandpassfilter;
#X floatatom 2183 346 5 0 0 0 - - -;
#X obj 2166 373 f;
#X obj 2172 403 *;
#X floatatom 2132 427 5 0 0 0 - - -;
#X text 2203 328 0-1;
#X obj 2174 309 routeOSC /volume;
#X obj 1860 289 routeOSC /instrument;
#X floatatom 1840 355 5 0 0 0 - - -;
#X obj 1988 328 routeOSC /play;
#X obj 2075 301 routeOSC /stop;
#X obj 2194 374 <= 100;
#X obj 2176 458 / 100;
#X floatatom 2117 487 5 0 0 0 - - -;
#X obj 1954 434 routeOSC /bandpassfilter;
#X obj 1950 466 / 100;
#X msg 2090 335 0;
#X obj 1992 212 routeOSC /voice5;
#X obj 1891 390 s inst5;
#X obj 1980 364 s midi5;
#X obj 1949 514 s filter5;
#X obj 2083 367 s stop5;
#X obj 2173 499 s vol5;
#X floatatom 2628 335 5 0 0 0 - - -;
#X obj 2611 362 f;
#X obj 2617 392 *;
#X floatatom 2577 416 5 0 0 0 - - -;
#X text 2648 317 0-1;
#X obj 2619 298 routeOSC /volume;
#X obj 2305 278 routeOSC /instrument;
#X floatatom 2285 344 5 0 0 0 - - -;
#X obj 2433 317 routeOSC /play;
#X obj 2520 290 routeOSC /stop;
#X obj 2639 363 <= 100;
#X obj 2621 447 / 100;
#X floatatom 2562 476 5 0 0 0 - - -;
#X obj 2399 423 routeOSC /bandpassfilter;
#X obj 2395 455 / 100;
#X msg 2535 324 0;
#X obj 2437 201 routeOSC /voice6;
#X obj 2336 379 s inst6;
#X obj 2425 353 s midi6;
#X obj 2394 503 s filter6;
#X obj 2618 488 s vol6;
#X obj 2528 356 s stop6;
#X obj -91 -10 miniwoogOSC5;
#X obj -91 9 miniwoogOSC6;
#X obj -90 30 miniwoogOSC7;
#X floatatom 3069 320 5 0 0 0 - - -;
#X obj 3052 347 f;
#X obj 3058 377 *;
#X floatatom 3018 401 5 0 0 0 - - -;
#X text 3089 302 0-1;
#X obj 3060 283 routeOSC /volume;
#X obj 2746 263 routeOSC /instrument;
#X floatatom 2726 329 5 0 0 0 - - -;
#X obj 2874 302 routeOSC /play;
#X obj 2961 275 routeOSC /stop;
#X obj 3080 348 <= 100;
#X obj 3062 432 / 100;
#X floatatom 3003 461 5 0 0 0 - - -;
#X obj 2840 408 routeOSC /bandpassfilter;
#X obj 2836 440 / 100;
#X msg 2976 309 0;
#X obj 2878 186 routeOSC /voice7;
#X obj 2777 364 s inst7;
#X obj 2866 338 s midi7;
#X obj 2835 488 s filter7;
#X obj 3059 473 s vol7;
#X obj 2969 341 s stop7;
#X floatatom 3515 320 5 0 0 0 - - -;
#X obj 3498 347 f;
#X obj 3504 377 *;
#X floatatom 3464 401 5 0 0 0 - - -;
#X text 3535 302 0-1;
#X obj 3506 283 routeOSC /volume;
#X obj 3192 263 routeOSC /instrument;
#X floatatom 3172 329 5 0 0 0 - - -;
#X obj 3320 302 routeOSC /play;
#X obj 3407 275 routeOSC /stop;
#X obj 3526 348 <= 100;
#X obj 3508 432 / 100;
#X floatatom 3449 461 5 0 0 0 - - -;
#X obj 3286 408 routeOSC /bandpassfilter;
#X obj 3282 440 / 100;
#X msg 3422 309 0;
#X obj 3324 186 routeOSC /voice8;
#X obj 3223 364 s inst8;
#X obj 3281 488 s filter8;
#X obj 3312 338 s midi8;
#X obj 3415 341 s stop8;
#X obj 3505 473 s vol8;
#X obj -121 314 unpack f f;
#X obj 754 221 s drmvox;
#X obj 1148 231 s drmvox;
#X obj 1641 238 s drmvox;
#X obj 2105 241 s drmvox;
#X obj 2544 236 s drmvox;
#X obj 2989 220 s drmvox;
#X obj 3426 214 s drmvox;
#X obj -113 71 samply;
#X obj -90 50 customer;
#X obj -302 316 unpack f f f f f f f;
#X obj -469 343 sel 1;
#X obj -403 340 sel 1;
#X obj -355 340 sel 1;
#X obj -302 339 sel 1;
#X obj -258 339 sel 1;
#X obj -215 340 sel 1;
#X obj -173 341 sel 1;
#X connect 1 0 3 0;
#X connect 1 0 6 0;
#X connect 3 0 5 0;
#X connect 4 0 7 0;
#X connect 4 0 16 0;
#X connect 4 0 58 0;
#X connect 4 0 76 0;
#X connect 4 0 129 0;
#X connect 4 0 151 0;
#X connect 4 0 176 0;
#X connect 4 0 198 0;
#X connect 4 0 97 0;
#X connect 5 0 4 0;
#X connect 7 0 12 0;
#X connect 7 0 13 0;
#X connect 7 0 20 0;
#X connect 7 0 21 0;
#X connect 7 0 81 0;
#X connect 8 0 9 0;
#X connect 8 0 23 0;
#X connect 9 0 10 1;
#X connect 10 0 11 0;
#X connect 10 0 24 0;
#X connect 12 0 8 0;
#X connect 13 0 18 0;
#X connect 16 0 32 0;
#X connect 16 0 34 0;
#X connect 16 0 35 0;
#X connect 16 0 31 0;
#X connect 16 0 84 0;
#X connect 16 0 205 0;
#X connect 18 0 17 0;
#X connect 20 0 19 0;
#X connect 21 0 93 0;
#X connect 23 0 10 0;
#X connect 24 0 25 0;
#X connect 24 0 14 0;
#X connect 26 0 27 0;
#X connect 26 0 36 0;
#X connect 27 0 28 1;
#X connect 28 0 29 0;
#X connect 28 0 37 0;
#X connect 31 0 26 0;
#X connect 32 0 33 0;
#X connect 33 0 39 0;
#X connect 34 0 40 0;
#X connect 35 0 94 0;
#X connect 36 0 28 0;
#X connect 37 0 38 0;
#X connect 37 0 42 0;
#X connect 45 0 46 0;
#X connect 45 0 55 0;
#X connect 46 0 47 1;
#X connect 47 0 48 0;
#X connect 47 0 56 0;
#X connect 50 0 45 0;
#X connect 51 0 52 0;
#X connect 52 0 59 0;
#X connect 53 0 60 0;
#X connect 54 0 96 0;
#X connect 55 0 47 0;
#X connect 56 0 57 0;
#X connect 56 0 62 0;
#X connect 58 0 51 0;
#X connect 58 0 53 0;
#X connect 58 0 54 0;
#X connect 58 0 50 0;
#X connect 58 0 87 0;
#X connect 58 0 206 0;
#X connect 63 0 64 0;
#X connect 63 0 73 0;
#X connect 64 0 65 1;
#X connect 65 0 66 0;
#X connect 65 0 74 0;
#X connect 68 0 63 0;
#X connect 69 0 70 0;
#X connect 70 0 77 0;
#X connect 71 0 78 0;
#X connect 72 0 95 0;
#X connect 73 0 65 0;
#X connect 74 0 75 0;
#X connect 74 0 80 0;
#X connect 76 0 69 0;
#X connect 76 0 71 0;
#X connect 76 0 72 0;
#X connect 76 0 68 0;
#X connect 76 0 90 0;
#X connect 76 0 207 0;
#X connect 81 0 82 0;
#X connect 82 0 83 0;
#X connect 84 0 85 0;
#X connect 85 0 86 0;
#X connect 87 0 88 0;
#X connect 88 0 89 0;
#X connect 90 0 91 0;
#X connect 91 0 92 0;
#X connect 93 0 22 0;
#X connect 94 0 41 0;
#X connect 95 0 79 0;
#X connect 96 0 61 0;
#X connect 97 0 99 0;
#X connect 97 0 112 0;
#X connect 97 0 98 0;
#X connect 98 0 214 0;
#X connect 99 0 204 0;
#X connect 107 0 108 0;
#X connect 108 0 110 0;
#X connect 109 0 111 0;
#X connect 111 0 110 1;
#X connect 113 0 114 0;
#X connect 113 0 123 0;
#X connect 114 0 115 1;
#X connect 115 0 116 0;
#X connect 115 0 124 0;
#X connect 118 0 113 0;
#X connect 119 0 120 0;
#X connect 120 0 130 0;
#X connect 121 0 131 0;
#X connect 122 0 128 0;
#X connect 123 0 115 0;
#X connect 124 0 125 0;
#X connect 124 0 134 0;
#X connect 126 0 127 0;
#X connect 127 0 132 0;
#X connect 128 0 133 0;
#X connect 129 0 119 0;
#X connect 129 0 121 0;
#X connect 129 0 122 0;
#X connect 129 0 118 0;
#X connect 129 0 126 0;
#X connect 129 0 208 0;
#X connect 135 0 136 0;
#X connect 135 0 145 0;
#X connect 136 0 137 1;
#X connect 137 0 138 0;
#X connect 137 0 146 0;
#X connect 140 0 135 0;
#X connect 141 0 142 0;
#X connect 142 0 152 0;
#X connect 143 0 153 0;
#X connect 144 0 150 0;
#X connect 145 0 137 0;
#X connect 146 0 147 0;
#X connect 146 0 155 0;
#X connect 148 0 149 0;
#X connect 149 0 154 0;
#X connect 150 0 156 0;
#X connect 151 0 141 0;
#X connect 151 0 143 0;
#X connect 151 0 144 0;
#X connect 151 0 140 0;
#X connect 151 0 148 0;
#X connect 151 0 209 0;
#X connect 160 0 161 0;
#X connect 160 0 170 0;
#X connect 161 0 162 1;
#X connect 162 0 163 0;
#X connect 162 0 171 0;
#X connect 165 0 160 0;
#X connect 166 0 167 0;
#X connect 167 0 177 0;
#X connect 168 0 178 0;
#X connect 169 0 175 0;
#X connect 170 0 162 0;
#X connect 171 0 172 0;
#X connect 171 0 180 0;
#X connect 173 0 174 0;
#X connect 174 0 179 0;
#X connect 175 0 181 0;
#X connect 176 0 166 0;
#X connect 176 0 168 0;
#X connect 176 0 169 0;
#X connect 176 0 165 0;
#X connect 176 0 173 0;
#X connect 176 0 210 0;
#X connect 182 0 183 0;
#X connect 182 0 192 0;
#X connect 183 0 184 1;
#X connect 184 0 185 0;
#X connect 184 0 193 0;
#X connect 187 0 182 0;
#X connect 188 0 189 0;
#X connect 189 0 199 0;
#X connect 190 0 201 0;
#X connect 191 0 197 0;
#X connect 192 0 184 0;
#X connect 193 0 194 0;
#X connect 193 0 203 0;
#X connect 195 0 196 0;
#X connect 196 0 200 0;
#X connect 197 0 202 0;
#X connect 198 0 188 0;
#X connect 198 0 190 0;
#X connect 198 0 191 0;
#X connect 198 0 187 0;
#X connect 198 0 195 0;
#X connect 198 0 211 0;
#X connect 204 0 107 0;
#X connect 204 1 109 0;
#X connect 214 0 215 0;
#X connect 214 1 216 0;
#X connect 214 2 217 0;
#X connect 214 3 218 0;
#X connect 214 4 219 0;
#X connect 214 5 220 0;
#X connect 214 6 221 0;
#X connect 215 0 100 0;
#X connect 216 0 101 0;
#X connect 217 0 102 0;
#X connect 218 0 103 0;
#X connect 219 0 104 0;
#X connect 220 0 105 0;
#X connect 221 0 106 0;
