#N canvas 591 186 835 551 10;
#X declare -path presets;
#X declare -lib mrpeach;
#X declare -path data;
#X declare -path data/bl-mmb;
#X declare -lib mrpeach;
#X declare -path presets;
#X declare -lib mrpeach;
#X declare -path data;
#X declare -path data/bl-mmb;
#X declare -path presets;
#X declare -lib mrpeach;
#X declare -path data;
#X declare -path data/bl-mmb;
#X declare -path presets;
#X declare -lib mrpeach;
#X declare -path data;
#X declare -path data/bl-mmb;
#X obj 50 3 miniwoogOSC;
#X obj 203 83 udpreceive 1112;
#X obj 208 16 import mrpeach;
#X obj 204 106 unpackOSC;
#X obj 204 154 routeOSC /sound;
#X obj 170 581 unpack f f;
#X obj 169 681 makenote 80 200;
#X obj 204 131 routeOSC /lpc;
#X obj 130 135 bng 15 250 50 0 empty empty empty 17 7 0 10 -262144
-1 -1;
#X obj 170 604 pack \$1 80 \$2;
#X obj 171 627 unpack f f f;
#X floatatom 168 652 5 0 0 0 - - -;
#X floatatom 249 654 5 0 0 0 - - -;
#X floatatom 207 653 5 0 0 0 - - -;
#X obj 271 683 * 1000;
#X obj 205 177 routeOSC /voice1;
#X obj 166 712 s notenumber1;
#X obj 253 710 s velocity1;
#X floatatom 384 259 5 0 0 0 - - -;
#X obj 367 286 f;
#X obj 373 316 *;
#X floatatom 333 340 5 0 0 0 - - -;
#X text 404 241 0-1;
#X obj 375 222 routeOSC /volume;
#X obj 61 202 routeOSC /instrument;
#X obj 374 412 s vol1;
#X obj 50 22 miniwoogOSC2;
#X obj 634 203 routeOSC /voice2;
#X floatatom 238 765 5 0 0 0 - - -;
#X obj 92 303 s inst1;
#X floatatom 41 268 5 0 0 0 - - -;
#X obj 181 277 s midi1;
#X obj 189 241 routeOSC /play;
#X obj 276 214 routeOSC /stop;
#X obj 284 280 s stop1;
#X obj 395 287 <= 100;
#X obj 377 371 / 100;
#X floatatom 318 400 5 0 0 0 - - -;
#X floatatom 827 338 5 0 0 0 - - -;
#X obj 810 365 f;
#X obj 816 395 *;
#X floatatom 776 419 5 0 0 0 - - -;
#X text 847 320 0-1;
#X obj 818 301 routeOSC /volume;
#X obj 494 283 routeOSC /instrument;
#X floatatom 474 349 5 0 0 0 - - -;
#X obj 632 320 routeOSC /play;
#X obj 719 293 routeOSC /stop;
#X obj 838 366 <= 100;
#X obj 820 450 / 100;
#X floatatom 761 479 5 0 0 0 - - -;
#X obj 525 384 s inst2;
#X obj 624 356 s midi2;
#X obj 727 359 s stop2;
#X obj 817 491 s vol2;
#X obj 51 43 miniwoogOSC3;
#X obj 51 62 miniwoogOSC4;
#X floatatom 1270 334 5 0 0 0 - - -;
#X obj 1253 361 f;
#X obj 1259 391 *;
#X floatatom 1219 415 5 0 0 0 - - -;
#X text 1290 316 0-1;
#X obj 1261 297 routeOSC /volume;
#X obj 947 277 routeOSC /instrument;
#X floatatom 927 343 5 0 0 0 - - -;
#X obj 1075 316 routeOSC /play;
#X obj 1162 289 routeOSC /stop;
#X obj 1281 362 <= 100;
#X obj 1263 446 / 100;
#X floatatom 1204 475 5 0 0 0 - - -;
#X obj 1077 199 routeOSC /voice3;
#X obj 978 378 s inst3;
#X obj 1067 352 s midi3;
#X obj 1170 355 s stop3;
#X obj 1260 487 s vol3;
#X floatatom 1730 336 5 0 0 0 - - -;
#X obj 1713 363 f;
#X obj 1719 393 *;
#X floatatom 1679 417 5 0 0 0 - - -;
#X text 1750 318 0-1;
#X obj 1721 299 routeOSC /volume;
#X obj 1407 279 routeOSC /instrument;
#X floatatom 1387 345 5 0 0 0 - - -;
#X obj 1535 318 routeOSC /play;
#X obj 1622 291 routeOSC /stop;
#X obj 1741 364 <= 100;
#X obj 1723 448 / 100;
#X floatatom 1664 477 5 0 0 0 - - -;
#X obj 1539 202 routeOSC /voice4;
#X obj 1438 380 s inst4;
#X obj 1527 354 s midi4;
#X obj 1630 357 s stop4;
#X obj 1720 489 s vol4;
#X obj 124 351 routeOSC /bandpassfilter;
#X obj 120 383 / 100;
#X obj 119 431 s filter1;
#X obj 595 414 routeOSC /bandpassfilter;
#X obj 591 446 / 100;
#X obj 590 494 s filter2;
#X obj 1048 420 routeOSC /bandpassfilter;
#X obj 1044 452 / 100;
#X obj 1043 500 s filter3;
#X obj 1501 424 routeOSC /bandpassfilter;
#X obj 1497 456 / 100;
#X obj 1496 504 s filter4;
#X msg 298 252 0;
#X msg 733 332 0;
#X msg 1637 325 0;
#X msg 1183 322 0;
#X connect 1 0 3 0;
#X connect 1 0 8 0;
#X connect 3 0 7 0;
#X connect 4 0 15 0;
#X connect 4 0 27 0;
#X connect 4 0 70 0;
#X connect 4 0 88 0;
#X connect 5 0 9 0;
#X connect 5 1 9 2;
#X connect 6 0 16 0;
#X connect 6 1 17 0;
#X connect 6 1 28 0;
#X connect 7 0 4 0;
#X connect 9 0 10 0;
#X connect 10 0 11 0;
#X connect 10 1 13 0;
#X connect 10 2 12 0;
#X connect 11 0 6 0;
#X connect 12 0 14 0;
#X connect 13 0 6 1;
#X connect 14 0 6 2;
#X connect 15 0 23 0;
#X connect 15 0 24 0;
#X connect 15 0 32 0;
#X connect 15 0 33 0;
#X connect 15 0 93 0;
#X connect 18 0 19 0;
#X connect 18 0 35 0;
#X connect 19 0 20 1;
#X connect 20 0 21 0;
#X connect 20 0 36 0;
#X connect 23 0 18 0;
#X connect 24 0 30 0;
#X connect 27 0 44 0;
#X connect 27 0 46 0;
#X connect 27 0 47 0;
#X connect 27 0 43 0;
#X connect 27 0 96 0;
#X connect 30 0 29 0;
#X connect 32 0 31 0;
#X connect 33 0 105 0;
#X connect 35 0 20 0;
#X connect 36 0 37 0;
#X connect 36 0 25 0;
#X connect 38 0 39 0;
#X connect 38 0 48 0;
#X connect 39 0 40 1;
#X connect 40 0 41 0;
#X connect 40 0 49 0;
#X connect 43 0 38 0;
#X connect 44 0 45 0;
#X connect 45 0 51 0;
#X connect 46 0 52 0;
#X connect 47 0 106 0;
#X connect 48 0 40 0;
#X connect 49 0 50 0;
#X connect 49 0 54 0;
#X connect 57 0 58 0;
#X connect 57 0 67 0;
#X connect 58 0 59 1;
#X connect 59 0 60 0;
#X connect 59 0 68 0;
#X connect 62 0 57 0;
#X connect 63 0 64 0;
#X connect 64 0 71 0;
#X connect 65 0 72 0;
#X connect 66 0 108 0;
#X connect 67 0 59 0;
#X connect 68 0 69 0;
#X connect 68 0 74 0;
#X connect 70 0 63 0;
#X connect 70 0 65 0;
#X connect 70 0 66 0;
#X connect 70 0 62 0;
#X connect 70 0 99 0;
#X connect 75 0 76 0;
#X connect 75 0 85 0;
#X connect 76 0 77 1;
#X connect 77 0 78 0;
#X connect 77 0 86 0;
#X connect 80 0 75 0;
#X connect 81 0 82 0;
#X connect 82 0 89 0;
#X connect 83 0 90 0;
#X connect 84 0 107 0;
#X connect 85 0 77 0;
#X connect 86 0 87 0;
#X connect 86 0 92 0;
#X connect 88 0 81 0;
#X connect 88 0 83 0;
#X connect 88 0 84 0;
#X connect 88 0 80 0;
#X connect 88 0 102 0;
#X connect 93 0 94 0;
#X connect 94 0 95 0;
#X connect 96 0 97 0;
#X connect 97 0 98 0;
#X connect 99 0 100 0;
#X connect 100 0 101 0;
#X connect 102 0 103 0;
#X connect 103 0 104 0;
#X connect 105 0 34 0;
#X connect 106 0 53 0;
#X connect 107 0 91 0;
#X connect 108 0 73 0;
