#N canvas 214 22 945 572 10;
#X declare -path sub;
#X obj 890 511 image sub/minizorglogo.gif;
#X obj 564 278 VCLF;
#X obj 843 16 VOLUME;
#X obj 5 545 declare -path sub;
#N canvas 562 292 450 300 C 0;
#X obj 233 217 s C;
#X obj 233 192 pack f f;
#X floatatom 233 169 5 0 0 0 - - -;
#X floatatom 278 169 5 30 100 0 - - -;
#X msg 278 144 90;
#X obj 278 115 bng 15 250 50 0 empty empty empty 17 7 0 10 -262144
-1 -1;
#X obj 233 46 ZRGPCKEY;
#X obj 45 181 loadbang;
#X msg 45 204 \; pd dsp 1;
#X connect 1 0 0 0;
#X connect 2 0 1 0;
#X connect 3 0 1 1;
#X connect 4 0 3 0;
#X connect 5 0 4 0;
#X connect 6 0 2 0;
#X connect 6 0 5 0;
#X connect 7 0 8 0;
#X coords 0 300 1 299 9 18 0;
#X restore 115 545 pd C;
#X obj 471 278 PULS;
#X obj 750 16 ZDLY;
#X obj 750 185 MIXER3X;
#X obj 657 464 SELETTOREVCO;
#X obj 564 371 DRCONTROL;
#X obj 6 371 DRUM-MACHINE;
#X obj 6 278 SEQUENCER;
#X coords 0 0 2 2 0 0 0;
